<svg version="1.2" baseProfile="tiny-ps" xmlns="http://www.w3.org/2000/svg" viewBox="0 0 100 132" width="100" height="132">
	<title>Page 1</title>
	<style>
		tspan { white-space:pre }
		.shp0 { fill: #000000;stroke: #000000;stroke-linecap:round;stroke-linejoin:round;stroke-width: 1.4 } 
	</style>
	<g id="Page 1">
		<path id="-e-a-letter" fill-rule="evenodd" class="shp0" d="M45.24 1.24C47.65 -0.56 62.8 21.5 84.02 19.13C79.64 23.21 76.04 32.17 68.91 33.84C67.79 38.48 54.79 71.18 85.41 106.31C88.66 104.56 93.06 97.93 94.33 94.5C95.61 91.07 100.96 86.64 97.3 94.64C93.63 102.64 73.81 124.25 70.37 130.39C70.42 126.6 70.66 125.59 70.66 125.59C68.75 124.58 52.05 101.33 52.19 94.4C48.21 97.96 24.09 121.35 21.59 130.42C21.46 126.75 23.55 123.68 23.02 123.05C11.04 108.83 -29.21 56.94 45.24 1.24ZM35.61 103.1C37.7 106.51 45.8 96.95 49.97 90.19C47.87 60.83 55.41 38.04 60.34 31.23C60.14 31.3 59.43 31.78 59.21 31.83C50.71 33.76 31.65 17.95 31.65 17.95C31.65 17.95 1.87 47.75 35.61 103.1Z" />
	</g>
</svg>