<svg version="1.2" baseProfile="tiny-ps" xmlns="http://www.w3.org/2000/svg" viewBox="0 0 93 254" width="93"
	height="254">
	<title>Page 1</title>
	<style>
		tspan {
			white-space: pre
		}

		.shp0 {
			fill: rgba(170, 170, 170, 0.5);
			stroke: rgba(170, 170, 170, 0.5);
			stroke-linecap: round;
			stroke-linejoin: round;
			stroke-width: 1.4
		}
	</style>
	<g id="Page 1">
		<path id="-e-frak-h-letter" class="shp0"
			d="M28.37 108.6C28.37 108.6 57.48 79.51 67.94 76.25C78.64 83.79 98.39 113.92 89.54 157.77C84.31 183.69 32.43 280.4 1.39 244.77C18.18 274.65 77.9 219.58 77.25 148.83C75.82 127.81 60.86 92.69 50.42 92.52C45.13 96.85 28.37 113.44 28.37 113.44L27.75 167.49C33 176.11 38.71 183.44 48.45 184.05C40.03 191.37 31.73 198.11 24.92 204.28L24.92 200.02C18.91 193.38 10.9 183.44 5.08 174.32L10.96 169C10.05 124.21 14.64 76.92 9.96 30.07C9.64 26.87 4.68 30.94 4.45 28.99C7.29 26.31 38.1 5.55 49.45 0.94C43.7 2.03 33.55 18.95 29.72 25.42C25.89 31.89 28.37 108.6 28.37 108.6Z" />
	</g>
</svg>