<svg version="1.2" baseProfile="tiny-ps" xmlns="http://www.w3.org/2000/svg" viewBox="0 0 59 175" width="59"
	height="175">
	<title>Page 1</title>
	<style>
		tspan {
			white-space: pre
		}

		.shp0 {
			fill: rgba(170, 170, 170, 0.5);
			stroke: rgba(170, 170, 170, 0.5);
			stroke-linecap: round;
			stroke-linejoin: round;
			stroke-width: 1.4
		}
	</style>
	<g id="Page 1">
		<path id="-e-frak-i-letter" class="shp0"
			d="M1.39 71.02C8.96 64.6 15.38 58.75 24.59 53.23C29.54 59.38 40.38 64.55 41.31 68.45C41.55 69.44 38.19 74.29 37.31 75.2L37.77 136.48C37.77 136.48 37.16 145.59 39.6 150.43C42.04 155.29 46.2 155.65 48.59 156.41C50.52 157.03 51.25 156.07 52.49 154.58C53.33 153.56 59.04 142.96 58.22 139.04C58.88 142.48 57.53 153.19 45.71 164.46C42.53 167.49 38.58 170.57 33.71 173.55C28.4 169.72 18.55 161.39 14.6 156.34C15.26 153.91 21.13 152.5 19.96 141.96C19.14 134.62 20.76 79.34 20.76 79.34C20.76 79.34 10.15 69.99 7.3 68.35C5.56 67.35 4.77 69.57 1.39 71.02ZM17.27 26.56C17.27 26.56 14.66 20.74 16.73 17.5C18.81 14.26 30.54 1.94 32.32 0.65C31.08 3.17 29.17 6.76 32.1 10.3C35.04 13.84 39.01 22.26 35.98 26.26C32.96 30.26 24.54 41 21.7 42.82C22.33 39.26 18.44 29.49 17.27 26.56Z" />
	</g>
</svg>