<svg version="1.2" baseProfile="tiny-ps" xmlns="http://www.w3.org/2000/svg" viewBox="0 0 94 109" width="94"
	height="109">
	<title>Page 1</title>
	<style>
		tspan {
			white-space: pre
		}

		.shp0 {
			fill: transparent;
			stroke: rgba(170, 170, 170, 0.5)
		}
	</style>
	<g id="Page 1">
		<path id="-e-a-letter" fill-rule="evenodd" class="shp0"
			d="M58.95 46.4C58.72 39.62 58.55 34.68 58.4 33.11C57.98 28.56 54.88 13.89 31.53 12.37C18.95 12.9 12.25 14.28 7.72 18.99C7.03 16.95 15.22 12.03 18.75 9.48C22.28 6.93 32.94 1 42.65 0.63C53.68 0.21 76.62 -4.64 77.54 32.65C78.46 69.94 78.48 79.46 78.66 83.85C78.85 88.24 82.07 98.35 88.27 96.42C94.47 94.5 93.79 96.3 93.79 96.3L79.26 105.36C79.26 105.36 62.59 118.21 61.05 94.46C60.93 92.71 60.82 90.91 60.72 89.08L60.72 89.09C60.72 89.09 39.19 109.48 23.8 108.99C8.4 108.5 0.36 94.23 0.2 80.97C0.56 74.64 12.88 65.21 20.93 62.31C28.98 59.41 40.79 56.54 45.05 54.73C48.99 53.05 56.58 50.84 58.95 46.4ZM60.79 81.2C61.36 78.26 59.49 52.16 59.71 49.01C55.5 53.06 51.01 55.38 47.69 56.82C44.36 58.27 29.14 63.7 22.79 65.64C16.43 67.59 16.93 70.54 17.7 77.49C18.47 84.43 30.44 94.49 37.56 94.77C54.57 95.42 57.38 84.8 60.79 81.2Z" />
	</g>
</svg>