<svg version="1.2" baseProfile="tiny-ps" xmlns="http://www.w3.org/2000/svg" viewBox="0 0 108 175" width="108"
	height="175">
	<title>Page 1</title>
	<style>
		tspan {
			white-space: pre
		}

		.shp0 {
			fill: transparent;
			stroke: rgba(170, 170, 170, 0.5)
		}
	</style>
	<g id="Page 1">
		<path id="-e-b-letter" fill-rule="evenodd" class="shp0"
			d="M20.79 0.22C26.37 -0.21 33 5.13 29.85 77.86C35.8 73.3 54.32 62.65 66.63 63.12C78.94 63.58 107.9 78.91 108 111.99C108.1 145.06 49.36 174.96 39.69 174.44C30.03 173.92 9.05 156.15 9.65 125.68C10.27 93.87 10.95 40.39 11.2 32.46C11.45 24.53 10.31 5.39 0.75 12.74C5.77 7.34 18.05 0.43 20.79 0.22ZM29.75 126.48C31.34 136.23 35.75 161.16 53.84 160.23C82.39 158.77 88.01 137.68 87.79 117.59C87.58 97.51 65.59 76.53 53.03 75.87C40.47 75.21 30.6 84.29 30.6 84.29C30.6 84.29 28.23 117.09 29.75 126.48Z" />
	</g>
</svg>