<svg version="1.2" baseProfile="tiny-ps" xmlns="http://www.w3.org/2000/svg" viewBox="0 0 116 175" width="116"
	height="175">
	<title>Page 1</title>
	<style>
		tspan {
			white-space: pre
		}

		.shp0 {
			fill: rgba(170, 170, 170, 0.5);
		}
	</style>
	<g id="Page 1">
		<path id="-e-d-letter" fill-rule="evenodd" class="shp0"
			d="M88.19 72.7C88.29 59.53 88.42 49.71 88.52 47.53C88.85 40.24 92.04 6.97 76.37 10.39C76.37 10.39 91.91 0.39 96.34 0.87C100.78 1.35 105.74 10.23 104.7 20.24C103.65 30.33 104.24 135.09 104.12 143.68C103.99 152.37 106.16 162.5 110.14 160.81C112.58 159.77 115.29 159.96 115.29 159.96L108.32 166.64C108.32 166.64 90.48 184.08 88.97 165.72C88.75 163.02 88.58 158.72 88.44 153.31C81.07 159.81 65.15 171.75 51.32 172.53C32.46 173.6 0.13 156.31 0.18 112.11C0.67 88.53 44.27 64.71 58.04 64.01C64.63 63.68 76.82 66.27 88.19 72.7ZM88.07 95.15C86.49 96.15 84.99 96.95 83.65 97.61C81.24 94.32 69.92 78.42 46.99 79.14C29.1 78.8 14.91 83.4 16.61 107.98C18.3 132.56 35.09 155.49 67.5 157.41C76.05 156.39 81.52 155.61 88.33 148.15C88.07 133.62 88.02 113.57 88.07 95.15Z" />
	</g>
</svg>