<svg version="1.2" baseProfile="tiny-ps" xmlns="http://www.w3.org/2000/svg" viewBox="0 0 86 109" width="86"
	height="109">
	<title>Page 1</title>
	<style>
		tspan {
			white-space: pre
		}

		.shp0 {
			fill: rgba(170, 170, 170, 0.5);
		}
	</style>
	<g id="Page 1">
		<path id="-e-e-letter" fill-rule="evenodd" class="shp0"
			d="M0.38 56.27C0.37 44.2 8.88 11.19 59.12 0.47C78.78 -2.31 70.49 24.51 70.49 24.51C66.74 32.51 30.15 64 21.14 63.94C26.17 73.74 36.33 95.05 60.98 94.67C71.17 94.36 77.02 93.56 85.2 85.85C81.92 92.07 56.5 109.14 44.53 108.61C32.57 108.09 0.39 94.69 0.38 56.27ZM19 57.36C46.23 55.84 53.37 33.72 52.85 26.2C52.48 20.88 47.5 12.76 42.35 12.06C37.2 11.36 33.66 14.74 29.11 18.13C17.09 27.1 17.4 50.29 19 57.36Z" />
	</g>
</svg>