<svg version="1.2" baseProfile="tiny-ps" xmlns="http://www.w3.org/2000/svg" viewBox="0 0 101 173" width="101"
	height="173">
	<title>Page 1</title>
	<style>
		tspan {
			white-space: pre
		}

		.shp0 {
			fill: rgba(170, 170, 170, 0.5);
		}
	</style>
	<g id="Page 1">
		<path id="-e-f-letter" class="shp0"
			d="M23.86 61.86C23.86 61.86 22.52 31.13 25.93 24.77C30.82 15.64 55.06 1.37 66.66 0.55C85.2 -0.77 101.96 22.29 100.46 23.09L82.9 34.4C84.53 33.1 62.75 8.1 56.01 8.89C42.45 10.47 41.29 22.04 41.08 30.35C40.87 38.67 40.14 60.25 40.14 60.25C40.14 60.25 49.72 59.79 54.36 59.94C59.7 60.11 72.21 61.29 72.21 61.29L87.55 60.91C87.55 60.91 67.61 74.08 62.68 75.03C57.74 75.97 40.5 75.57 40.5 75.57L39.84 154.07C39.84 154.07 38.78 163.58 43.73 163.82C48.42 164.05 51.83 162.03 51.83 162.03C51.83 162.03 37.17 173.29 32.91 172.42C23.47 170.48 24.23 165.47 23.66 155.53C23.09 145.59 24.2 75.67 24.2 75.67C16.74 74.95 7.3 75.3 0.3 76.23L18.38 64.07L23.86 61.86ZM23.86 61.86C23.86 61.86 22.52 31.13 25.93 24.77C30.82 15.64 55.06 1.37 66.66 0.55C85.2 -0.77 101.96 22.29 100.46 23.09L82.9 34.4C84.53 33.1 62.75 8.1 56.01 8.89C42.45 10.47 41.29 22.04 41.08 30.35C40.87 38.67 40.14 60.25 40.14 60.25C40.14 60.25 49.72 59.79 54.36 59.94C59.7 60.11 72.21 61.29 72.21 61.29L87.55 60.91C87.55 60.91 67.61 74.08 62.68 75.03C57.74 75.97 40.5 75.57 40.5 75.57L39.84 154.07C39.84 154.07 38.78 163.58 43.73 163.82C48.42 164.05 51.83 162.03 51.83 162.03C51.83 162.03 37.17 173.29 32.91 172.42C23.47 170.48 24.23 165.47 23.66 155.53C23.09 145.59 24.2 75.67 24.2 75.67C16.74 74.95 7.3 75.3 0.3 76.23L18.38 64.07L23.86 61.86Z" />
	</g>
</svg>