<svg version="1.2" baseProfile="tiny-ps" xmlns="http://www.w3.org/2000/svg" viewBox="0 0 122 180" width="122"
	height="180">
	<title>Page 1</title>
	<style>
		tspan {
			white-space: pre
		}

		.shp0 {
			fill: rgba(170, 170, 170, 0.5);
		}
	</style>
	<g id="Page 1">
		<path id="-e-g-letter" fill-rule="evenodd" class="shp0"
			d="M49.91 0.18C60.2 0.16 74.69 2.42 83.58 10.08C88.78 6.2 88.75 2.04 93.53 1.87C98.3 1.7 106.54 2.7 109.68 2.39C112.81 2.08 115.74 2.66 121.2 2.69C116.3 7.36 106.78 15.29 103.96 16.36C98.7 15.95 89.61 16.21 89.61 16.21C89.61 16.21 93.72 27.67 93.49 35.29C93.22 44.25 84.25 59.34 71.99 64.89C62.67 69.11 50.79 80.56 50.72 85.35C50.54 97.4 111.42 120 113.35 137.12C114.13 143.97 76.71 178.33 46.38 179.15C22.42 179.46 6.98 167.55 6.48 153.88C5.91 138.09 46.57 117.36 53.68 115.44C47.85 112.72 33.39 105.16 33.37 97.85C33.36 91.5 36.3 88.11 40.01 85.63C34.23 84.76 0.28 82.9 0.66 44.56C0.29 16.15 36.61 0.21 49.91 0.18ZM22.54 137.78C20.84 144.96 31.28 164.93 53.76 165.02C81.61 166.58 95.79 159.36 95.78 146.94C95.77 139.03 56.1 116.72 56.1 116.72C56.1 116.72 27.01 129.48 22.54 137.78ZM38.17 13.75C32.23 12.74 26.88 12.96 23.56 14.79C19.01 17.29 17.63 23.24 17.33 30.46C16.96 39.74 19.22 67.06 47.51 71.58C71.74 68.96 77.81 54.73 75.9 35.79C74.69 23.75 50.26 15.81 38.17 13.75Z" />
	</g>
</svg>