<svg version="1.2" baseProfile="tiny-ps" xmlns="http://www.w3.org/2000/svg" viewBox="0 0 113 175" width="113"
	height="175">
	<title>Page 1</title>
	<style>
		tspan {
			white-space: pre
		}

		.shp0 {
			fill: transparent;
			stroke: rgba(170, 170, 170, 0.5)
		}
	</style>
	<g id="Page 1">
		<path id="-e-h-letter" class="shp0"
			d="M24.63 0.67C27.25 0.41 33.1 4.46 33.47 18.89C33.84 33.32 33.47 85.79 33.47 85.79C33.47 85.79 63.36 65.19 75.67 64.96C87.98 64.73 97.06 77.06 97.06 99.47C97.06 121.88 96.66 149.53 97.52 154.64C98.38 159.74 102.05 163.02 105.72 162.17C109.37 161.33 112.42 160.65 112.42 160.65C112.42 160.65 92.83 174.03 88.37 174.93C81.94 176.24 81.58 164.33 81.12 155.08C80.66 145.83 80.79 107.31 80.79 101.76C80.79 96.2 75.46 77.6 57.7 77.8C45 77.95 34.47 87.76 34.12 90.31C33.77 92.87 32.84 143.71 35.28 155.16C36.04 158.75 39.04 163.48 44.68 159.74C42.52 163.82 26.22 173.02 21.74 173.21C17.26 173.39 17.12 144.62 17.07 133.31C17.01 122 14.99 35.18 15.35 28.57C16.33 10.75 2.01 14.69 -0.25 15.04C5.15 11.18 16.24 1.49 24.63 0.67Z" />
	</g>
</svg>