<svg version="1.2" baseProfile="tiny-ps" xmlns="http://www.w3.org/2000/svg" viewBox="0 0 43 148" width="43"
	height="148">
	<title>Page 1</title>
	<style>
		tspan {
			white-space: pre
		}

		.shp0 {
			fill: rgba(170, 170, 170, 0.5)
		}
	</style>
	<g id="Page 1">
		<path id="-e-Path 4 copy" class="shp0"
			d="M21.3 39.04C26.48 39.18 29.13 39.95 31.48 54.06C33.9 68.52 31.23 129.08 33.75 132.91C36.75 137.49 40.88 135.79 42.69 135.63C39.38 138.73 25.72 147.39 20.51 147.47C16.06 147.53 13.59 137.11 13.08 131.01C12.56 124.77 17.9 52.81 8.95 50.84C4.99 50.21 1.2 51.69 0.56 50.98C3.63 47.88 16.9 38.92 21.3 39.04ZM11.07 17.71C11.44 19.63 11.44 26.38 12.34 26.98C13.8 26.96 27.54 18.44 28.62 17.68C29.75 15.31 30.48 10.68 29.56 7.55C28.67 4.57 27.2 0.33 25.37 0.35C23.09 0.88 8.45 9.68 8.15 11.63C8.46 13.37 10.61 15.37 11.07 17.71Z" />
	</g>
</svg>