<svg version="1.2" baseProfile="tiny-ps" xmlns="http://www.w3.org/2000/svg" viewBox="0 0 83 209" width="83"
	height="209">
	<title>Page 1</title>
	<style>
		tspan {
			white-space: pre
		}

		.shp0 {
			fill: rgba(170, 170, 170, 0.5);
		}
	</style>
	<g id="Page 1">
		<path id="-e-j-letter" class="shp0"
			d="M72.58 37.46C74 37.4 79.32 37.94 80.51 46.19C81.7 65 81.1 93.95 81.19 98.96C81.88 138.85 84.12 178.5 79.77 183.9C76.21 188.33 46.04 207.05 33.54 208.32C20.19 209.67 1.13 202.79 0.39 190.8C-0.05 183.65 18.41 175.16 22.62 173.3C19.14 177.4 17.34 178.53 17.64 181.22C18.25 186.78 27.37 198.7 42.98 197.94C58.59 197.18 64.14 194.2 64.22 182.19C64.31 169.76 63.42 61.13 62.93 56.88C62.43 52.64 59.64 46.96 53.05 48.89C54.9 45.32 67.85 37.66 72.58 37.46ZM62.44 20.5C62.42 18.4 58.16 13.39 57.82 12C57.92 10.2 73.25 0.35 75.61 0.06C75.65 0.06 75.28 1.56 75.97 2.73C76.66 3.89 79.35 7.52 79.68 9.07C80.01 10.61 79.85 16.58 78.66 17.72C77.47 18.87 63.67 27.24 62.16 27.99C61.96 25.54 62.48 22.96 62.44 20.5Z" />
	</g>
</svg>