<svg version="1.2" baseProfile="tiny-ps" xmlns="http://www.w3.org/2000/svg" viewBox="0 0 117 174" width="117"
	height="174">
	<title>Page 1</title>
	<style>
		tspan {
			white-space: pre
		}

		.shp0 {
			fill: rgba(170, 170, 170, 0.5);
		}
	</style>
	<g id="Page 1">
		<path id="-e-k-letter" class="shp0"
			d="M33.49 106.3C33.66 121.4 34.56 149.22 35.71 154.61C36.47 158.2 39.47 162.93 45.12 159.19C42.96 163.27 26.65 172.47 22.17 172.66C17.69 172.84 17.56 144.07 17.5 132.76C17.44 121.45 15.42 34.64 15.78 28.02C16.76 10.2 2.44 14.14 0.18 14.49C5.58 10.63 16.67 0.94 25.06 0.12C27.68 -0.14 33.53 3.91 33.9 18.34C34.27 32.77 33.9 85.24 33.9 85.24C33.9 85.24 34.01 88.41 34.07 101.65L72.96 78.38C62.65 77.13 57.61 77.71 47.9 76.98C47.9 76.98 60.08 67.44 66.84 65.65C73.14 63.99 75.45 65 81.77 64.92C87.91 64.85 99.76 64.72 99.76 64.72L46.25 96.79L89.54 154C89.54 154 96.6 162.28 101.07 163.14C105.64 164.02 116.98 159.27 116.98 159.27C113.63 161.96 106.74 166.55 101.94 169.47C93.06 174.88 87.25 173.08 85.8 172.89C76.94 171.72 33.49 106.3 33.49 106.3Z" />
	</g>
</svg>