<svg version="1.2" baseProfile="tiny-ps" xmlns="http://www.w3.org/2000/svg" viewBox="0 0 166 136" width="166" height="136">
	<title>Page 1</title>
	<style>
		tspan { white-space:pre }
		.shp0 { fill: #000000 } 
	</style>
	<g id="Page 1">
		<path id="Path 18" class="shp0" d="M114.46 9.97L131.71 -0.11C131.71 -0.11 140.76 15.12 142.77 16.33C139.85 18.65 125.57 26.47 123.75 26.31C121.93 26.15 114.46 9.97 114.46 9.97ZM0.15 42.16C0.15 42.16 15.17 30.29 21.46 29.39C27.75 28.49 39.65 31.22 45.08 31.53C50.52 31.83 60.76 30.16 65.7 29.79C63.93 32.78 44.28 45.13 40.62 45.59C37.65 45.96 19.6 42.62 15.37 42.06C11.13 41.51 0.15 42.16 0.15 42.16ZM66.39 44.77C65.45 44.06 86.27 29.66 90.21 29.76C96.01 29.92 139.71 96.28 156.9 120.34C157.84 121.65 160.04 121.87 161.99 121.18C163.74 120.56 165.25 119.07 165.84 119.38C164.12 121.41 157.96 126.16 152.08 130.07C148.38 132.52 144.88 135.85 141.99 135.35C128.92 115.81 90.13 57.5 78.32 42.33C77.27 40.99 75.15 41.47 73.24 41.99C70.27 42.81 67.06 45.28 66.39 44.77Z" />
	</g>
</svg>