<svg version="1.2" baseProfile="tiny-ps" xmlns="http://www.w3.org/2000/svg" viewBox="0 0 152 110" width="152"
	height="110">
	<title>Page 1</title>
	<style>
		tspan {
			white-space: pre
		}

		.shp0 {
			fill: rgba(170, 170, 170, 0.5);
		}
	</style>
	<g id="Page 1">
		<path id="-e-m-letter" class="shp0"
			d="M29.49 21.04C33.32 15.85 50.23 0.18 66.21 0.74C73.61 1 84.16 6.67 86.77 22.45C90.27 17.49 107.44 1.35 123.65 1.92C132.34 2.22 145.39 9.99 144.8 32.86C144.2 55.72 144.66 93.71 146.79 97.24C148.92 100.77 150.5 99.45 151.96 101.44C149.47 103.34 139.58 109.54 133.01 109C127.5 108.48 126.86 97.38 126.56 91.76C126.27 86.15 127.02 44.67 125.84 34.99C124.66 25.32 117.27 14.75 106.6 15.11C96.62 15.45 90.36 19.73 86.85 22.9C87.25 25.54 87.44 28.46 87.35 31.68C86.75 54.54 86.63 93.15 88.76 96.68C90.89 100.2 93.06 98.27 94.51 100.26C92.03 102.16 82.27 108.82 75.7 108.29C70.2 107.77 69.94 96.8 69.65 91.19C69.35 85.58 69.58 43.49 68.4 33.82C67.22 24.14 59.83 13.57 49.16 13.93C39.3 14.26 33.07 18.45 29.54 21.61C29.6 22.46 29.65 23.35 29.68 24.27C30.34 44.27 28.51 79.83 28.71 84.55C28.94 89.65 34.05 96.87 39.52 95.93C37.61 98.25 24.15 108.76 20.44 108.27C16.72 107.79 13.84 99.54 13.58 90.93C13.32 82.33 13.38 33.15 12.63 27.67C11.87 22.18 7.49 13.5 0.23 14.91C5.96 10.04 19.73 1.28 19.73 1.28C19.73 1.28 28 3.94 29.49 21.04Z" />
	</g>
</svg>