<svg version="1.2" baseProfile="tiny-ps" xmlns="http://www.w3.org/2000/svg" viewBox="0 0 96 109" width="96"
	height="109">
	<title>Page 1</title>
	<style>
		tspan {
			white-space: pre
		}

		.shp0 {
			fill: rgba(170, 170, 170, 0.5);
		}
	</style>
	<g id="Page 1">
		<path id="-e-n-letter" class="shp0"
			d="M29.43 17.06C33.61 11.78 50.34 0.53 64.26 0.88C68.32 0.82 86.81 2.77 87.28 28.76C87.75 54.74 87.06 84.09 87.69 89.02C88.32 93.95 88.56 97.93 95.2 96.66C91.92 98.77 76.04 108.68 76.04 108.68C71.14 108.4 68.63 91.32 68.62 84.45C68.62 76.84 70.49 48.4 68.96 33.96C67.95 24.44 64.7 13.78 49.37 12.94C43.46 12.61 32.94 18.29 29.65 20.23C29.79 22.13 29.39 24.57 29.43 26.86C29.83 50.06 30.41 74.24 30.33 82.29C30.25 90.34 33.81 100.32 39.54 98.18C34.29 101.68 27.26 109.48 21.31 108.63C13.26 107.48 13.9 92.99 12.79 81.9C11.68 70.82 12.84 31.7 12.51 25.6C12.18 19.51 9.58 14.89 7.32 13.32C4.75 11.53 3.73 10.9 0.23 11.96C3.82 9.11 16.14 0.79 19.71 0.88C22.54 0.95 28.02 0.36 29.43 17.06Z" />
	</g>
</svg>