<svg version="1.2" baseProfile="tiny-ps" xmlns="http://www.w3.org/2000/svg" viewBox="0 0 109 175" width="109"
	height="175">
	<title>Page 1</title>
	<style>
		tspan {
			white-space: pre
		}

		.shp0 {
			fill: rgba(170, 170, 170, 0.5);
		}
	</style>
	<g id="Page 1">
		<path id="-e-p-letter-found" fill-rule="evenodd" class="shp0"
			d="M0.58 13.04C0.58 13.04 12.79 1.12 19.07 1.1C27.65 1.07 29.62 14.84 30.07 21.2C32.75 19.33 56.56 0.7 63.88 0.75C73.94 0.82 107.74 12.01 108.5 50.59C109.06 78.81 93.87 97.16 56.34 109.51C37.63 109.72 34.13 103.23 30.81 101.23C30.08 106.28 31.17 142.2 31.86 148.12C32.51 153.68 34.16 163.94 44.17 159.68C39.84 164.35 30.35 174.23 23.06 174.2C15.48 174.18 14.06 162.61 13.76 148.06C13.47 133.52 11.99 37.2 12.46 30.01C12.92 22.81 9.66 9.05 0.58 13.04ZM30.38 78.72C30.55 89.02 54.57 102.57 69.61 100.9C84.36 99.25 91.2 90.28 91.29 66.9C91.38 43.36 71.91 16.14 54.96 16.25C38.08 16.36 30.09 27.85 30.09 27.85C30.09 27.85 30.21 68.49 30.38 78.72Z" />
	</g>
</svg>