<svg version="1.2" baseProfile="tiny-ps" xmlns="http://www.w3.org/2000/svg" viewBox="0 0 109 173" width="109"
	height="173">
	<title>Page 1</title>
	<style>
		tspan {
			white-space: pre
		}

		.shp0 {
			fill: rgba(170, 170, 170, 0.5);
		}
	</style>
	<g id="Page 1">
		<path id="-e-q-letter" fill-rule="evenodd" class="shp0"
			d="M55.96 0.76C77.22 2.16 82.28 12.92 85.74 12C88.73 11.2 88.98 10.74 88.98 10.74C88.98 10.74 99.69 1.45 108.78 0.52C108.92 2.08 100.24 2.41 97.61 12.82C94.99 23.24 95.11 37.58 94.72 58.1C94.33 78.63 96.92 144.6 96.64 150.29C96.37 155.97 98.93 160.61 102.47 158.85C106.01 157.09 108.05 157.28 108.05 157.28L93.33 168.54C93.33 168.54 83.13 178.54 80.08 166.04C77.69 156.25 78.08 99.03 78.13 93.24C76.52 96.29 56.95 112.58 41.4 110.72C26.01 108.88 3.67 100.59 0.35 59.88C-2.58 23.82 44.19 -0.02 55.96 0.76ZM78.13 93.24C78.27 92.97 78.27 92.81 78.13 92.76C78.13 92.76 78.13 92.93 78.13 93.24ZM16.88 49.29C19.2 85.91 43.13 94.55 54.59 97.16C66.26 99.81 78.01 89.53 78.01 89.53C78.01 89.53 77.38 58.63 77 46.27C76.56 31.94 82.73 17.37 82.73 17.37C82.73 17.37 73.25 23.95 70 26.28C67.67 19.52 46.89 15.49 43.26 15.58C28.35 15.94 15.44 26.54 16.88 49.29Z" />
	</g>
</svg>