<svg version="1.2" baseProfile="tiny-ps" xmlns="http://www.w3.org/2000/svg" viewBox="0 0 100 110" width="100"
	height="110">
	<title>Page 1</title>
	<style>
		tspan {
			white-space: pre
		}

		.shp0 {
			fill: rgba(170, 170, 170, 0.5);
		}
	</style>
	<g id="Page 1">
		<path id="-e-r-letter" class="shp0"
			d="M31.54 13.66C33.94 12.08 50.8 1.09 55.57 0.76C60.69 0.4 75.06 5.08 81.06 5.02C87.1 4.95 95.67 1.34 99.11 0.76C98.06 4.42 72.25 20.58 66.56 20.34C60.87 20.11 46.5 16.4 43.12 16.3C40.03 16.2 34.59 14.81 32.14 17.34C34.16 34.12 31.74 90.92 34.18 94.63C37.18 99.21 41.31 97.51 43.12 97.35C39.81 100.45 26.15 109.11 20.94 109.19C16.5 109.25 14.02 98.83 13.51 92.73C12.99 86.48 18.33 14.53 9.38 12.56C5.42 11.93 1.63 13.4 1 12.7C4.06 9.6 17.34 0.64 21.73 0.76C26.64 0.89 29.27 1.59 31.54 13.66Z" />
	</g>
</svg>