<svg version="1.2" baseProfile="tiny-ps" xmlns="http://www.w3.org/2000/svg" viewBox="0 0 90 111" width="90"
	height="111">
	<title>Page 1</title>
	<style>
		tspan {
			white-space: pre
		}

		.shp0 {
			fill: rgba(170, 170, 170, 0.5);
		}
	</style>
	<g id="Page 1">
		<path id="-e-s-letter" class="shp0"
			d="M2.84 34C0.53 21.2 29.33 2.92 46.71 0.92C61.5 -0.77 76.43 12.59 76.43 12.59L60.38 22.76C60.38 22.76 43.51 12.77 36.41 12.07C27.65 11.21 16.7 15.58 19.03 23.11C23.13 36.31 49.19 38.96 55.12 40.38C61.04 41.8 86.86 48.42 89.18 62.58C90.58 71.17 77.18 98.39 43.75 108.53C19.88 115.77 0.95 100.26 0.38 89.18C0.11 84.02 23.7 68.58 23.7 68.58L15.87 75.83C15.87 75.83 18.07 90.49 30.22 93.35C66.29 101.85 73.34 86.08 72.66 75.91C71.98 65.75 61.79 58.05 49.96 56.25C36.06 54.14 5.45 48.43 2.84 34Z" />
	</g>
</svg>