<svg version="1.2" baseProfile="tiny-ps" xmlns="http://www.w3.org/2000/svg" viewBox="0 0 44 107" width="44" height="107">
	<title>Page 1</title>
	<style>
		tspan { white-space:pre }
		.shp0 { fill: #000000 } 
	</style>
	<g id="Page 1">
		<path id="Path 6" class="shp0" d="M18.99 0.35C18.99 0.35 29.17 -3.89 29.82 15.03C30.05 21.88 30.76 35.62 30.8 49.19C30.86 66.82 29.49 85.7 33.56 94.37C35.5 98.51 40.02 99.26 43.71 97.71C36.9 100.95 27.42 107.29 22.37 106.3C18.77 105.59 13.03 98.68 12.74 93.4C12.59 90.49 12.83 69.62 12.47 50.52C12.18 35.09 11.41 20.83 11.34 18.81C11.26 16.43 9.95 13.69 7.64 12.62C5.56 11.66 2 12.36 -0.08 12.54C1.03 8.66 18.59 -0.64 18.99 0.35Z" />
	</g>
</svg>