<svg version="1.2" baseProfile="tiny-ps" xmlns="http://www.w3.org/2000/svg" viewBox="0 0 85 128" width="85"
	height="128">
	<title>Page 1</title>
	<style>
		tspan {
			white-space: pre
		}

		.shp0 {
			fill: rgba(170, 170, 170, 0.5);
		}
	</style>
	<g id="Page 1">
		<path id="-e-t-letter" class="shp0"
			d="M41.08 25.52C41.08 25.52 55.3 25.66 59.35 25.06C69.18 23.58 80.41 11.47 84.52 5.1C80.4 6.18 81.15 10.3 67.15 11.38C52.32 12.52 41.08 11.63 41.08 11.63C41.08 11.63 41.06 3.66 41.08 0.17C38.79 2.02 32.75 6.14 24.48 11.06C14.95 16.71 2.43 22.93 0.98 24.4C3.96 25.07 18.06 22.97 21.6 24.37C21.34 27.07 21.41 101.47 23.28 110.65C23.1 118.22 29.81 127.02 41.08 127.32C47.18 127.48 66.67 115.64 71.56 112.12C65.36 113.84 57.37 117.49 53.72 116.64C48.34 115.38 42.03 106.2 41.08 88.81C40.14 71.41 41.08 25.52 41.08 25.52Z" />
	</g>
</svg>