<svg version="1.2" baseProfile="tiny-ps" xmlns="http://www.w3.org/2000/svg" viewBox="0 0 103 110" width="103"
	height="110">
	<title>Page 1</title>
	<style>
		tspan {
			white-space: pre
		}

		.shp0 {
			fill: rgba(170, 170, 170, 0.5);
		}
	</style>
	<g id="Page 1">
		<path id="-e-u-letter" class="shp0"
			d="M19.49 0.07C22.2 0.12 26.73 1.37 27.03 12.12C27.32 22.88 25.79 58.2 26.03 64.38C26.28 70.56 27.36 96.12 50.88 96.95C59.49 97.31 65.68 91.65 69.45 87.69C69.21 82.45 70.84 48.39 70.98 40.28C71.09 34.02 71.77 15.77 67.24 13.61C64.49 12.29 63.32 11.83 59.66 13.9C59.68 11.73 74.51 1.26 79.31 1.39C84.1 1.52 87.52 9.42 87.39 17.82C87.26 26.23 86.87 52.44 86.82 60.16C86.78 66.95 86.22 78.73 86.88 84.29C87.27 87.5 89.83 97.7 95.76 96.05C101.69 94.4 102.18 95.77 102.18 95.77C102.18 95.77 84.79 109.19 77.77 109.31C70.75 109.43 70.09 98.5 69.83 92.04C68.27 91.93 54.02 101.05 54.02 101.05C54.02 101.05 42.95 109.69 33.6 109.45C24.25 109.22 9.58 101.24 8.5 76.9C7.41 52.57 10.13 38.43 10.24 30.78C10.33 23.91 10.37 9.48 0.61 11.86C6.93 7.63 16.49 0.03 19.49 0.07Z" />
	</g>
</svg>