<svg version="1.2" baseProfile="tiny-ps" xmlns="http://www.w3.org/2000/svg" viewBox="0 0 172 110" width="172"
	height="110">
	<title>Page 1</title>
	<style>
		tspan {
			white-space: pre
		}

		.shp0 {
			fill: rgba(170, 170, 170, 0.5);
		}
	</style>
	<g id="Page 1">
		<path id="-e-w-letter" class="shp0"
			d="M19.32 1.56C24.65 1.71 59.24 78.25 63.57 91.45C66.16 89.4 78.19 90.24 92.52 40.55C91.12 34.02 81.15 12.45 74.42 18.21C73.52 16.2 86.12 2.4 91.09 0.97C93.11 1.02 99.21 9.27 105.46 21.58C117.59 45.47 131.66 82.87 133.02 88.76C135.57 86.76 159.5 55.08 157.44 28.11C156.32 13.49 150.94 17.32 148.61 19.47C148.42 16.86 162.23 1.22 166.01 1.22C169.8 1.23 171.94 7.91 171.94 13.46C171.92 26.19 166.64 42.42 157.73 58C144.54 81.05 125.58 102.67 121.53 109.36C117 101.04 99 52.24 99 52.24C99 52.24 65.05 103.84 51.91 108.98C48.67 104.96 40.02 82.51 31.18 62.54C22.27 42.44 13.19 24.81 11.63 23.48C8.52 20.83 9.97 14.95 0.38 22.66C-0.33 20.85 15.35 1.45 19.32 1.56Z" />
	</g>
</svg>