<svg version="1.2" baseProfile="tiny-ps" xmlns="http://www.w3.org/2000/svg" viewBox="0 0 102 115" width="102"
	height="115">
	<title>Page 1</title>
	<style>
		tspan {
			white-space: pre
		}

		.shp0 {
			fill: rgba(170, 170, 170, 0.5);
		}
	</style>
	<g id="Page 1">
		<path id="-e-x-letter" class="shp0"
			d="M53.35 41.51C63.66 30.71 77.55 14.63 69.62 14.14C73.12 9.96 82.81 -1.16 86.43 0.96C92.71 4.63 66.39 31.25 54.81 43.39C73.85 67.73 93.75 93.57 95.37 93.88C98.2 94.43 99.48 91.7 101.59 91.47C98.86 94.38 85.01 109.21 82.95 109.24C81.5 109.26 65.52 91.9 46.1 65.26C44.44 62.97 42.76 60.69 41.07 58.43C30.2 70.13 14.4 88.19 22.65 92.03C17.21 99.15 7.38 110.73 8.44 114.07C5.32 112 -0.27 95.64 39.09 55.78C23.61 35.17 8.51 17.01 6.83 16.74C2.74 16.1 0.36 18.33 0.36 18.33C0.36 18.33 15.4 0.73 19.55 0.97C21.45 1.08 36.89 20.47 53.35 41.51Z" />
	</g>
</svg>