<svg version="1.2" baseProfile="tiny-ps" xmlns="http://www.w3.org/2000/svg" viewBox="0 0 120 175" width="120"
	height="175">
	<title>Page 1</title>
	<style>
		tspan {
			white-space: pre
		}

		.shp0 {
			fill: rgba(170, 170, 170, 0.5);
		}
	</style>
	<g id="Page 1">
		<path id="-e-y-letter" class="shp0"
			d="M18.85 0.75C25.1 0.8 70.29 84.53 73.53 92.6C75.8 85.75 103.68 29.7 103.68 29.7C113.18 10.28 95.8 15.91 95.8 15.91C102.35 9.5 110.82 0.62 116.75 0.99C132.91 8.75 67.01 115.66 58.3 128.71C50.26 140.75 54.67 168.52 64.43 157.47C57.2 166.8 51.77 176.08 45.78 173.88C26.09 166.64 53.65 124.1 60.14 113.6C57.04 106.18 19.05 30.02 15.48 24.95C11.91 19.88 9.17 10.55 0.56 19.8C1.21 15.22 12.61 0.7 18.85 0.75Z" />
	</g>
</svg>