<svg version="1.2" baseProfile="tiny-ps" xmlns="http://www.w3.org/2000/svg" viewBox="0 0 101 114" width="101"
	height="114">
	<title>Page 1</title>
	<style>
		tspan {
			white-space: pre
		}

		.shp0 {
			fill: rgba(170, 170, 170, 0.5);
		}
	</style>
	<g id="Page 1">
		<path id="-e-z-letter" class="shp0"
			d="M33.7 4.72C36.51 4.49 96.26 6.8 100.62 0.03C94.38 6.61 29.84 87.5 26.05 101.37C29.56 102.91 74.61 102.37 80.38 102.24C86.15 102.11 95.9 100.58 100.62 97.81C94.59 103.8 74.65 112.4 66.55 112.96C58.46 113.52 21.6 111.48 15.37 111.27C9.15 111.06 4.52 112.23 0.38 112.96C1.88 108.36 58.1 24.15 64.3 17.56C60.21 17.22 47.68 17.57 42.36 17.26C37.11 16.94 14.1 16.12 9.7 20.55C11.41 15.94 27.36 5.26 33.7 4.72Z" />
	</g>
</svg>